<svg width="4" height="17" viewBox="0 0 4 17" fill="none" xmlns="http://www.w3.org/2000/svg">
<path d="M3.01834 0H1.41744C0.638555 0 0.00488281 0.633673 0.00488281 1.41256V2.5426H1.48022C1.74025 2.5426 1.95107 2.75342 1.95107 3.01345C1.95107 3.27349 1.74025 3.4843 1.48022 3.4843C1.05168 3.4843 0.466004 3.4843 0.00488281 3.4843V5.05381H1.48022C1.74025 5.05381 1.95107 5.26463 1.95107 5.52466C1.95107 5.7847 1.74025 5.99552 1.48022 5.99552C0.715618 5.99552 1.16255 5.99552 0.00488281 5.99552V7.56502H1.48022C1.74025 7.56502 1.95107 7.77584 1.95107 8.03587C1.95107 8.29591 1.74025 8.50673 1.48022 8.50673C1.05168 8.50673 0.466004 8.50673 0.00488281 8.50673V10.0762H1.48022C1.74025 10.0762 1.95107 10.287 1.95107 10.5471C1.95107 10.8071 1.74025 11.0179 1.48022 11.0179C0.715618 11.0179 1.16255 11.0179 0.00488281 11.0179V12.5874H1.48022C1.74025 12.5874 1.95107 12.7983 1.95107 13.0583C1.95107 13.3183 1.74025 13.5291 1.48022 13.5291C1.05168 13.5291 0.466004 13.5291 0.00488281 13.5291V14.6592C0.00488281 15.4381 0.638555 16.0717 1.41744 16.0717H3.01834V0Z" fill="white"/>
</svg>
